<svg id="icons" enable-background="new 0 0 64 64" height="512" viewBox="0 0 64 64" width="512" xmlns="http://www.w3.org/2000/svg"><path d="m61.006 49.01 1.99 7h-3.991z" fill="#ffce54"/><path d="m46.994 46.27-16 3.73-15.99-3.73-14-3.27 29.99-7.01 30.002 7.01z" fill="#656d78"/><path d="m46.994 58.99h.03c0 1.66-1.35 3.01-3.021 3.01l-.02-.01h-25.98v.01c-1.67 0-3.01-1.34-3.02-3h.02v-12.73l15.991 3.73 16-3.73z" fill="#545c66"/><path d="m44.994 16c0 6.98-5.119 12.76-11.81 13.81l-2.19 2.19-2.18-2.19c-6.689-1.05-11.82-6.829-11.82-13.81 0-7.73 6.271-14 14-14 7.74 0 14 6.27 14 14z" fill="#ed5565"/><path d="m30.992 50.996c-.076 0-.152-.009-.228-.026l-29.984-7c-.452-.105-.772-.509-.772-.974s.32-.868.772-.974l29.984-7.002c.15-.035.305-.035.455 0l29.998 7.002c.452.105.772.509.772.974s-.32.868-.772.974l-29.998 7c-.074.017-.151.026-.227.026zm-25.586-8 25.586 5.973 25.598-5.973-25.598-5.975z"/><path d="m59.009 57.006c-.092 0-.184-.013-.275-.038-.531-.152-.839-.705-.688-1.236l1.998-7c.152-.532.709-.834 1.236-.688.531.152.839.705.688 1.236l-1.998 7c-.126.44-.527.726-.961.726z"/><path d="m62.991 57.006c-.436 0-.836-.287-.961-.727l-1.986-7c-.15-.532.157-1.085.688-1.235.532-.151 1.084.157 1.235.688l1.986 7c.15.532-.157 1.085-.688 1.235-.091.027-.183.039-.274.039z"/><path d="m62.992 57.006h-3.984c-.553 0-1-.447-1-1s.447-1 1-1h3.984c.553 0 1 .447 1 1s-.447 1-1 1z"/><path d="m15.004 60c-.553 0-1-.447-1-1v-12.736c0-.553.447-1 1-1s1 .447 1 1v12.736c0 .553-.447 1-1 1z"/><path d="m46.994 60c-.553 0-1-.447-1-1v-12.738c0-.553.447-1 1-1s1 .447 1 1v12.738c0 .553-.447 1-1 1z"/><path d="m44.006 63.002c-.553 0-1-.447-1-1s.447-1 1-1c1.111 0 2.016-.904 2.016-2.016 0-.553.447-1 1-1s1 .447 1 1c-.001 2.214-1.802 4.016-4.016 4.016z"/><path d="m43.984 62.99h-25.984c-.553 0-1-.447-1-1s.447-1 1-1h25.984c.553 0 1 .447 1 1s-.447 1-1 1z"/><path d="m18 63.002c-2.214 0-4.016-1.802-4.016-4.016 0-.553.447-1 1-1s1 .447 1 1c0 1.111.904 2.016 2.016 2.016.553 0 1 .447 1 1s-.447 1-1 1z"/><path d="m61.006 50.006c-.553 0-1-.447-1-1v-6.01c0-.553.447-1 1-1s1 .447 1 1v6.01c0 .553-.447 1-1 1z"/><path d="m43.008 59.008h-24c-.553 0-1-.447-1-1s.447-1 1-1h24c.553 0 1 .447 1 1s-.447 1-1 1z"/><path d="m30.999 32.996c-.256 0-.512-.098-.707-.293l-1.96-1.96c-7.166-1.284-12.333-7.434-12.333-14.745 0-8.271 6.729-15 15-15s15 6.729 15 15c0 7.312-5.167 13.461-12.333 14.745l-1.96 1.96c-.195.195-.451.293-.707.293zm0-29.998c-7.168 0-13 5.832-13 13 0 6.431 4.613 11.824 10.97 12.824.209.033.402.132.552.281l1.479 1.479 1.479-1.479c.149-.149.343-.248.552-.281 6.356-1 10.97-6.394 10.97-12.824-.002-7.168-5.834-13-13.002-13z"/><path d="m22.987 16.992c-.256 0-.512-.098-.707-.293-.391-.391-.391-1.023 0-1.414l3-3c.391-.391 1.023-.391 1.414 0s.391 1.023 0 1.414l-3 3c-.195.196-.451.293-.707.293z"/><path d="m25.987 19.992c-.256 0-.512-.098-.707-.293l-3-3c-.391-.391-.391-1.023 0-1.414s1.023-.391 1.414 0l3 3c.391.391.391 1.023 0 1.414-.195.196-.451.293-.707.293z"/><path d="m38.994 16.992c-.256 0-.512-.098-.707-.293l-3-3c-.391-.391-.391-1.023 0-1.414s1.023-.391 1.414 0l3 3c.391.391.391 1.023 0 1.414-.195.196-.451.293-.707.293z"/><path d="m35.994 19.992c-.256 0-.512-.098-.707-.293-.391-.391-.391-1.023 0-1.414l3-3c.391-.391 1.023-.391 1.414 0s.391 1.023 0 1.414l-3 3c-.195.196-.451.293-.707.293z"/><path d="m28.989 21.994c-.124 0-.25-.022-.371-.071-.513-.205-.763-.787-.558-1.3l4.001-10.004c.205-.515.79-.762 1.3-.558.513.205.763.787.558 1.3l-4.001 10.004c-.156.392-.532.629-.929.629z"/></svg>